<?xml version="1.0" encoding="utf-8"?><!-- Uploaded to: SVG Repo, www.svgrepo.com, Generator: SVG Repo Mixer Tools -->
<svg fill="#000000" width="800px" height="800px" viewBox="0 0 24 24" id="shipping-2" data-name="Line Color" xmlns="http://www.w3.org/2000/svg" class="icon line-color"><path id="secondary" d="M13,5H8A1,1,0,0,0,7,6V9" style="fill: none; stroke: rgb(44, 169, 188); stroke-linecap: round; stroke-linejoin: round; stroke-width: 2;"></path><path id="primary" d="M10,21H4a1,1,0,0,1-1-1V14a1,1,0,0,1,1-1h6a1,1,0,0,1,1,1v6A1,1,0,0,1,10,21ZM7,13v2M19,3a2,2,0,0,0-2,2c0,1.69,2,4,2,4s2-2.31,2-4A2,2,0,0,0,19,3Z" style="fill: none; stroke: rgb(0, 0, 0); stroke-linecap: round; stroke-linejoin: round; stroke-width: 2;"></path></svg>